<?xml version="1.0" encoding="UTF-8"?> <svg xmlns="http://www.w3.org/2000/svg" width="111" height="70" viewBox="0 0 111 70" fill="none"><path d="M17.1101 38.8054C17.1101 45.1643 14.6996 48.6372 8.73678 48.6372C2.77393 48.6372 0 46.0662 0 35.6489H6.82604C6.82604 40.9702 7.46317 41.8722 8.73678 41.8722C10.0104 41.8722 10.284 40.9683 10.284 38.8054C10.284 36.1899 9.82799 35.1078 6.82604 32.6718C3.50357 30.0112 0 27.8463 0 21.0368C0 15.1286 2.50292 11.6563 8.23646 11.6563C13.97 11.6563 16.6547 15.1286 16.6547 22.8407H9.83255C9.83255 19.3226 9.28597 18.4207 8.23972 18.4207C7.19347 18.4207 6.8293 19.3246 6.8293 21.0368C6.8293 23.6523 8.01236 24.6892 10.5602 26.6287C14.3798 29.5153 17.1101 31.9958 17.1101 38.8054Z" fill="white"></path><path d="M24.8449 18.8724V26.764H30.9882V33.529H24.8449V41.4207H30.9882V48.1857H18.0195V12.1074H30.9882V18.8724H24.8449Z" fill="white"></path><path d="M49.0078 38.3549V21.939C49.0078 14.6788 45.959 11.6572 40.4528 11.6572C34.9466 11.6572 31.8984 14.6788 31.8984 21.939V38.3549C31.8984 44.5331 34.1277 47.645 38.1779 48.4566L38.1746 47.871C39.7663 47.9164 41.351 48.0972 42.9114 48.4114C46.8697 47.554 49.0078 44.442 49.0078 38.3549ZM42.1825 37.903C42.1825 40.9698 41.9544 41.8717 40.4528 41.8717C38.9512 41.8717 38.7238 40.9678 38.7238 37.903V22.3903C38.7238 19.3235 38.9512 18.4215 40.4528 18.4215C41.9544 18.4215 42.1825 19.3254 42.1825 22.3903V37.903ZM38.1779 48.456V54.0478C42.774 54.4998 44.7759 54.9517 48.5525 57.205V50.4407C46.688 49.2688 45.23 48.6826 42.9127 48.4114C41.1798 48.9189 39.5616 48.8059 38.1779 48.4566V48.456Z" fill="white"></path><path d="M67.0313 38.3545C67.0313 45.6154 63.9831 48.637 58.4769 48.637C52.9707 48.637 49.9219 45.6154 49.9219 38.3545V12.1074H56.7473V37.9032C56.7473 40.97 56.9746 41.872 58.4769 41.872C59.9792 41.872 60.2059 40.9681 60.2059 37.9032V12.1074H67.0313V38.3545Z" fill="white"></path><path d="M84.3231 22.3713C84.5642 22.387 84.8062 22.3812 85.0463 22.3538V21.9393C85.0463 21.4254 85.0311 20.9324 85.0007 20.4602C84.301 20.8747 83.6059 21.2892 82.7029 20.4395L83.5407 20.2C83.0625 20.067 82.7974 19.9914 82.5251 19.9159C83.0222 18.7215 83.828 18.2172 84.6977 18.1494C84.6456 17.8976 84.5876 17.6516 84.5225 17.416C84.2619 17.3372 84.0091 17.363 83.7062 17.6678C83.2867 18.09 82.5687 17.8673 82.1081 17.2694C82.4209 17.0157 82.7368 16.7607 83.0528 16.505L82.9459 16.3494C82.7453 16.4023 82.5446 16.454 82.3075 16.5147C82.2495 15.9045 82.1974 15.3441 82.1375 14.7069C82.6091 14.6423 82.873 14.4841 82.9896 14.262C81.5394 12.4685 79.3459 11.6562 76.4906 11.6562C70.9851 11.6562 67.9375 14.6765 67.9375 21.938V38.3527C67.9375 45.6142 70.9851 48.6345 76.4906 48.6345C81.9961 48.6345 85.0463 45.6142 85.0463 38.3527V24.8073C84.7707 25.0965 84.5095 25.3438 84.2052 25.5175C83.7042 25.8002 83.0254 25.7615 82.4358 25.9048C82.0163 26.0043 81.6143 26.1631 81.0678 26.3465C81.1095 26.1379 81.1375 26.0159 81.144 25.9771L80.4339 25.2669C80.6463 25.154 80.86 25.0436 81.1616 24.8847C81.4111 24.4186 79.6821 24.4528 80.7531 23.669C80.7779 23.7413 80.8 23.8117 80.8248 23.8827L82.4078 23.1312L81.3557 22.7954C82.3388 22.3732 83.2997 22.3228 84.3231 22.3713ZM78.2196 37.9027C78.2196 40.9702 77.9929 41.8721 76.4906 41.8721C74.9883 41.8721 74.7622 40.9682 74.7622 37.9027V22.3906C74.7622 19.3232 74.9903 18.4212 76.4906 18.4212C77.9909 18.4212 78.2196 19.3251 78.2196 22.3906V37.9027Z" fill="white"></path><path d="M103.671 42.0521H100.076L99.576 48.1857H92.75L97.2093 12.1074H106.538L110.998 48.1857H104.171L103.671 42.0521ZM103.125 35.2878L101.897 19.2759L100.622 35.2878H103.125Z" fill="white"></path><path d="M94.6412 14.7987L94.4614 14.5669C95.2067 14.0129 95.8679 13.4047 95.9598 12.4957C95.3995 12.0618 94.8275 11.6202 94.2536 11.1786C94.3005 11.1243 94.3461 11.0714 94.393 11.0185C94.737 11.1134 95.0771 11.2593 95.4236 11.2767C95.5585 11.2851 95.8562 10.972 95.8288 10.8687C95.7122 10.4167 95.5774 9.93895 95.3077 9.5774C95.1018 9.303 94.6784 9.19001 94.3077 8.97889C93.7696 9.07638 93.1311 9.19389 92.4927 9.30945L92.436 9.19647L92.8738 8.81296C92.5819 8.71676 92.3565 8.64122 92.1318 8.56568C92.1448 8.474 92.1572 8.38426 92.1702 8.29451C92.6373 8.33906 93.1311 8.30549 93.567 8.44817C94.2588 8.67285 94.1389 8.31905 94.1474 8.00333C93.6262 7.93102 93.2204 7.8742 92.6354 7.79479C93.7728 6.57453 92.0907 6.3576 92.0152 5.76684C92.4249 5.34782 92.7376 5.0618 92.9924 4.73059C93.0295 4.68281 92.7409 4.27477 92.6894 4.29091C92.3246 4.41165 91.9813 4.59759 91.638 4.75965C91.4595 4.52528 91.2002 4.25734 91.0249 3.94227C90.7318 3.41736 89.9344 2.98349 90.7403 2.10349C90.894 2.63872 91.0217 3.08809 91.1031 3.36894C91.5422 3.82089 91.95 4.39873 92.5598 3.68078C91.8582 3.29663 91.0816 2.96283 91.2341 2.10994C90.9422 1.88526 90.6477 1.75226 90.5005 1.52564C90.1793 1.0356 89.9331 0.497787 89.666 0C87.9663 0.915515 87.5162 2.50379 86.7168 3.9074C86.9565 4.06429 87.2334 4.24572 87.5109 4.42391C87.4979 4.48848 87.4849 4.55304 87.4699 4.6176C86.5194 4.22699 86.0458 4.80355 85.5487 5.38333C86.2758 6.10774 87.0784 5.66483 87.8432 5.59381C87.2569 6.17165 86.7201 6.73401 85.881 6.03865C85.7331 5.91663 85.3494 6.07416 85.0738 6.10322C85.1696 6.31499 85.2647 6.52869 85.3722 6.76951L84.6419 7.06586C84.7722 7.26472 84.8725 7.41903 84.9859 7.59399H83.8256C83.6953 7.98719 83.5872 8.31001 83.4347 8.76324C83.7722 8.84201 84.1364 8.89237 84.4771 9.01698C84.7748 9.12416 85.0425 9.31204 85.324 9.46505C85.2836 9.52122 85.2412 9.57546 85.2009 9.63163C84.5722 9.48571 82.9246 10.019 82.9663 10.4187C83.0054 10.7931 82.3331 11.3871 83.2224 11.6021C83.5142 11.2296 83.8185 10.817 84.4263 11.3051C84.2562 11.4543 84.1233 11.5685 84.01 11.668L86.0947 11.1314C86.064 11.5266 86.0465 11.7693 86.0367 11.8927C85.6009 12.1658 85.2608 12.3795 84.864 12.63C84.1559 12.0082 83.496 12.6409 82.6797 12.874C82.9924 13.4118 83.1761 13.918 82.9924 14.266C83.6667 15.0995 84.182 16.1448 84.5253 17.4187C84.6852 17.473 84.8408 17.5395 84.9904 17.6175C85.4315 17.828 85.9188 17.9403 86.3728 18.1269C86.4458 18.1573 86.4458 18.3561 86.4973 18.5376C85.9207 18.2599 85.2953 18.1043 84.7005 18.1502C84.8558 18.9125 84.9571 19.6846 85.0035 20.4609C85.3083 20.2795 85.6126 20.1 85.937 20.0225C86.1715 20.2162 86.4341 20.4357 86.7292 20.6811C87.0484 20.2879 87.1956 19.5331 87.8536 20.2291C87.3324 20.6501 86.6725 20.9503 86.3937 21.4558C86.0569 22.0692 85.5644 22.2874 85.0491 22.352V24.8054C85.2921 24.5504 85.5429 24.2624 85.8458 23.9661C85.7487 24.5523 85.6888 24.9184 85.621 25.3219C86.1181 25.0759 86.5474 24.8655 86.9351 24.6763C86.9351 24.3328 86.9767 24.0035 86.9188 23.6936C86.8829 23.5103 86.7233 23.2759 86.5572 23.2036C85.9012 22.9163 85.9285 22.5618 86.3696 22.106C86.5461 21.9233 86.6868 21.6947 86.8908 21.5475C87.0823 21.4061 87.3318 21.3403 87.5552 21.2421C87.638 21.4636 87.793 21.6857 87.7917 21.9071C87.7839 22.9253 87.7416 23.9448 87.6894 24.961C87.6588 25.5569 87.5859 26.1496 87.5324 26.7436L85.8816 26.3808C86.008 26.6681 86.081 26.8366 86.1533 27.0038C86.2836 26.9638 86.5051 26.8101 86.6849 26.8514C87.152 26.9573 87.5969 27.1484 88.0491 27.3034C87.3025 27.5571 87.4399 28.2492 87.4321 28.8884C87.4204 29.8569 87.4321 30.8253 87.382 31.7938C87.1648 36.3464 86.9357 40.8995 86.6947 45.4529C86.6022 47.2129 85.9982 48.7321 84.4797 49.7903C84.2334 49.9633 84.0237 50.1867 83.6113 50.5483L85.1018 50.802C85.1735 50.8995 85.2973 51.0713 85.4504 51.2837C86.0237 50.7536 86.5442 50.2752 87.1644 49.7019V51.908C87.2373 51.9351 87.3103 51.9642 87.3833 51.9919C87.6575 51.682 88.0054 51.4109 88.1839 51.0558C88.4726 50.4867 88.6934 49.8863 88.8419 49.2667C89.1741 47.8463 89.4393 46.413 89.7311 44.9842L89.7963 44.9726C89.8269 45.6408 89.8614 46.3071 89.8888 46.974C89.9728 46.9689 90.0588 46.9656 90.1429 46.9611C89.9149 42.4038 89.686 37.8454 89.4562 33.2859C89.539 33.2568 89.6197 33.2297 89.7005 33.2006C89.7507 33.3298 89.7995 33.4544 89.8484 33.5829C89.8855 33.5538 89.9227 33.5248 89.9618 33.4963C89.8419 30.4373 89.7231 27.3776 89.6054 24.3173C89.707 24.3044 89.8093 24.2915 89.9116 24.2773C89.965 24.5355 90.0575 24.786 90.0666 25.043C90.2406 29.7788 90.3272 34.519 90.5982 39.247C90.7494 41.8851 90.4074 44.6058 91.535 47.1348C92.0614 48.3183 92.6425 49.4791 93.2041 50.6497C93.2412 50.6367 93.2784 50.6238 93.3174 50.6116V49.9014C93.5572 49.9511 93.7565 49.993 93.9735 50.0395C93.5214 49.3765 93.0373 48.8064 92.7096 48.1575C91.5852 45.932 91.1409 43.5283 91.0328 41.0677C90.8373 36.5896 90.6745 32.1108 90.5116 27.632C90.4777 26.6829 90.5064 25.7306 90.5064 24.7802C90.5859 24.7337 90.6653 24.6853 90.7468 24.6388C91.2536 25.0353 91.7611 25.4323 92.2601 25.821C92.1709 25.6086 92.0718 25.3742 91.9344 25.0533L92.7396 25.3568C92.294 24.9662 91.7624 24.7718 91.2829 24.5007C90.965 24.3225 90.5012 24.0526 90.4712 23.7859C90.3722 22.8433 90.4321 21.8833 90.4321 21.122C90.8165 20.9006 91.0966 20.7347 91.3995 20.5616C91.8256 20.0813 92.2243 22.126 92.7591 20.5616C92.9142 20.6081 93.0666 20.6533 93.3083 20.7237C93.2236 20.4351 93.167 20.2472 93.0907 19.9902H93.8999C93.6692 19.8308 93.509 19.7204 93.3181 19.5887C93.2327 19.6868 93.1422 19.7806 93.0471 19.8695C92.9505 19.9448 92.8501 20.0151 92.7461 20.08C92.3487 19.5486 92.3487 19.5486 93.6842 18.8481C93.8236 19.0037 93.937 19.1851 94.1005 19.2833C94.1657 19.3201 94.4152 19.1916 94.4536 19.0896C94.752 18.3232 93.7422 18.5563 93.6015 18.0249L94.1591 17.9042C93.193 16.6071 91.853 16.8712 91.0412 17.6698C90.8275 17.8803 90.5162 17.9926 90.2491 18.1534C90.1761 18.0888 90.1031 18.0243 90.0302 17.9597C90.2021 17.6627 90.3025 17.2592 90.5585 17.0907C91.1513 16.7033 91.7963 16.3198 92.4705 16.1481C92.8803 16.0454 93.5513 15.5734 93.8901 16.4244C93.9468 16.5671 94.3461 16.6607 94.5637 16.6232C94.6803 16.6045 94.7344 16.2572 94.8295 16.0661C94.9383 15.8511 95.0093 15.5554 95.1911 15.4462C95.9331 14.9943 95.9461 15.0195 95.421 14.4429L94.6412 14.7987ZM87.6054 6.53967L87.7852 6.81923L86.4425 8.02205C86.3774 7.67341 86.3403 7.47907 86.3227 7.38933C86.81 7.06586 87.2074 6.80115 87.6041 6.53967H87.6054ZM87.5846 17.4639C87.382 16.9248 87.1807 16.3831 86.978 15.844C86.8742 15.8758 86.7707 15.9083 86.6673 15.9414C86.7324 16.1732 86.8015 16.4044 86.8699 16.6355C86.8263 16.6755 86.7807 16.7143 86.7396 16.7543C86.5904 16.5697 86.393 16.4044 86.3051 16.1939C86.2002 15.9414 86.1904 15.6496 86.137 15.3668C87.3272 15.033 87.7109 15.5147 87.5833 17.4639H87.5846ZM87.6556 14.6379C87.5552 14.6954 87.4549 14.7515 87.3539 14.8077L86.6771 13.6404L86.9311 13.4958C87.2139 13.8509 87.978 13.9096 87.6543 14.6379H87.6556ZM87.8126 11.3452C87.7188 11.4097 87.6263 11.4743 87.5344 11.5388C87.2599 11.1424 86.9854 10.7458 86.7109 10.3489C86.7904 10.2928 86.8699 10.2379 86.9474 10.1817C87.3285 10.4961 88.0093 10.5814 87.8106 11.3458L87.8126 11.3452ZM90.9337 10.5058L90.1885 11.1017C89.6953 10.5497 89.7487 9.84469 90.3227 9.43148L90.9337 10.5058ZM89.8015 1.70707C90.3878 1.65542 90.5031 1.90076 90.1044 2.487C89.7494 1.97049 89.4464 1.52564 89.1272 1.05626C89.9051 0.853535 89.9051 0.853534 89.8015 1.70707ZM89.5259 42.4914L89.2373 42.5056C89.14 40.5644 89.0428 38.6225 88.9455 36.68L89.2178 36.6561C89.322 38.6021 89.4247 40.548 89.5259 42.494V42.4914ZM89.2276 31.4994C89.1368 29.5577 89.0456 27.6159 88.9539 25.6738C89.0432 25.6738 89.1305 25.6654 89.2197 25.6622C89.3214 27.6021 89.4245 29.5431 89.5292 31.4852L89.2276 31.4994ZM89.6732 16.4644C89.621 16.4644 89.5676 16.4689 89.5162 16.4722C89.4823 15.9666 89.451 15.4592 89.4126 14.9465C88.5657 15.1331 88.5657 15.1331 88.2914 14.5198C89.0478 14.3428 89.8028 14.1647 90.6986 13.9561L90.5188 14.6863C90.2158 14.6127 89.978 14.5572 89.6718 14.483L89.6732 16.4644ZM89.9403 23.3418C89.8751 23.3418 89.81 23.3418 89.7448 23.3418V21.0116H89.9403V23.3418ZM90.0249 16.6988C89.9989 16.1958 89.9748 15.7387 89.9487 15.2035C90.6777 15.3546 91.1637 15.5909 91.1624 16.3805C90.8282 16.4767 90.4881 16.5709 90.0256 16.7014L90.0249 16.6988Z" fill="white"></path><path d="M89.5273 51.3378C89.8668 50.286 90.2062 49.2343 90.5365 48.2129C90.9521 48.4789 91.8107 50.0491 91.5032 50.4339C91.0935 50.9504 90.3957 51.2338 89.8205 51.618L89.5273 51.3378Z" fill="white"></path><path d="M35.6861 62.9893V69.7039H35.0509V65.249L34.0431 69.7039H33.518L32.5186 65.249V69.7039H31.8828V62.9893H32.5186L33.7805 68.4372L35.0509 62.9893H35.6861Z" fill="white"></path><path d="M47.0852 67.9329C47.0852 69.2849 46.6448 69.7885 45.6786 69.7885C44.7125 69.7885 44.2812 69.2849 44.2812 67.9329V62.9893H44.9164V67.9755C44.9164 68.8652 45.0858 69.159 45.6786 69.159C46.2715 69.159 46.4493 68.8652 46.4493 67.9755V62.9893H47.0852V67.9329Z" fill="white"></path><path d="M58.4836 68.092C58.4836 69.1579 58.0927 69.7874 57.1618 69.7874C56.0693 69.7874 55.6797 69.1831 55.6797 67.4289H56.3149C56.3149 68.8642 56.5266 69.1579 57.1618 69.1579C57.636 69.1579 57.8478 68.9481 57.8478 68.092C57.8478 67.2359 57.5344 66.9163 56.8738 66.4211C56.2725 65.9691 55.739 65.4726 55.739 64.4571C55.739 63.5338 56.137 62.9043 57.0771 62.9043C58.0171 62.9043 58.4575 63.5338 58.4575 64.9187H57.8224C57.8224 63.7436 57.5266 63.5338 57.0771 63.5338C56.6276 63.5338 56.3742 63.7436 56.3742 64.4571C56.3742 65.1369 56.7044 65.481 57.221 65.8775C57.95 66.4127 58.4836 66.8911 58.4836 68.092Z" fill="white"></path><path d="M67.7172 62.989V69.7036H67.082V62.989H67.7172Z" fill="white"></path><path d="M78.4806 64.7098C78.4806 63.8285 78.3112 63.5348 77.7099 63.5348C77.1086 63.5348 76.9477 63.8285 76.9477 64.7098V67.9755C76.9477 68.8652 77.1171 69.1589 77.7099 69.1589C78.3027 69.1589 78.4806 68.8652 78.4806 67.9755V66.976H79.1164V67.9329C79.1164 69.2848 78.6754 69.7884 77.7099 69.7884C76.7444 69.7884 76.3125 69.2848 76.3125 67.9329V64.7518C76.3125 63.4005 76.7529 62.9053 77.7099 62.9053C78.6669 62.9053 79.1164 63.4005 79.1164 64.7518V65.7203H78.4806V64.7098Z" fill="white"></path></svg> 