<svg width="21" height="19" viewBox="0 0 21 19" fill="none" xmlns="http://www.w3.org/2000/svg">
<path fill-rule="evenodd" clip-rule="evenodd" d="M1.40927 7.78687C6.91218 5.2342 10.5817 3.55133 12.4177 2.73824C17.6599 0.41673 18.7492 0.0134583 19.4592 0.000141981C19.6154 -0.00278679 19.9645 0.038417 20.1907 0.233809C20.3816 0.398794 20.4342 0.621665 20.4593 0.778089C20.4845 0.934512 20.5158 1.29085 20.4909 1.56928C20.2068 4.74726 18.9776 12.4594 18.3523 16.0188C18.0876 17.5249 17.5666 18.0299 17.0622 18.0793C15.966 18.1867 15.1336 17.308 14.0719 16.5669C12.4105 15.4074 11.4719 14.6856 9.85926 13.5541C7.99555 12.2465 9.20371 11.5278 10.2658 10.3532C10.5438 10.0459 15.3737 5.36845 15.4672 4.94413C15.4789 4.89107 15.4897 4.69325 15.3793 4.5888C15.269 4.48435 15.1061 4.52007 14.9885 4.54848C14.8219 4.58874 12.1678 6.45651 7.02624 10.1518C6.27288 10.7026 5.59052 10.9709 4.97914 10.9569C4.30515 10.9413 3.00866 10.5511 2.04485 10.2175C0.862701 9.8084 -0.0768473 9.59209 0.00496632 8.89725C0.0475799 8.53534 0.51568 8.16521 1.40927 7.78687Z" fill="#2BABEE"/>
</svg>
